<mxfile host="app.diagrams.net" modified="2021-05-15T21:14:14.407Z" agent="5.0 (Windows NT 10.0; Win64; x64) AppleWebKit/537.36 (KHTML, like Gecko) Chrome/90.0.4430.212 Safari/537.36 Edg/90.0.818.62" etag="K85o48yUgrtamsoU79qE" version="14.6.13" type="github">
  <diagram id="HAqLXCuU4HpD_HcN2Gnn" name="Use Case Model">
    <mxGraphModel dx="2336" dy="1304" grid="1" gridSize="10" guides="1" tooltips="1" connect="1" arrows="1" fold="1" page="1" pageScale="1" pageWidth="1600" pageHeight="1200" math="0" shadow="0">
      <root>
        <mxCell id="0" />
        <mxCell id="1" parent="0" />
        <mxCell id="RbzYjNv_zatoaMsZqTDK-34" value="" style="endArrow=none;html=1;fontFamily=Tahoma;fontColor=#CC0066;strokeColor=#CC0066;strokeWidth=1;entryX=0;entryY=0.5;entryDx=0;entryDy=0;" edge="1" parent="1" source="RbzYjNv_zatoaMsZqTDK-12" target="RbzYjNv_zatoaMsZqTDK-29">
          <mxGeometry width="50" height="50" relative="1" as="geometry">
            <mxPoint x="330" y="490" as="sourcePoint" />
            <mxPoint x="400.99999999999955" y="699" as="targetPoint" />
          </mxGeometry>
        </mxCell>
        <mxCell id="RbzYjNv_zatoaMsZqTDK-1" value="Usuario&lt;br&gt;Soporte" style="shape=umlActor;verticalLabelPosition=bottom;verticalAlign=top;html=1;strokeColor=#CC0066;strokeWidth=3;fontStyle=1;fontColor=#CC0066;fontFamily=Tahoma;" vertex="1" parent="1">
          <mxGeometry x="890" y="670" width="40" height="80" as="geometry" />
        </mxCell>
        <mxCell id="RbzYjNv_zatoaMsZqTDK-6" value="Crear&amp;nbsp;Cliente" style="ellipse;whiteSpace=wrap;html=1;fontFamily=Tahoma;fillColor=#fff2cc;strokeColor=#CC0066;strokeWidth=2;" vertex="1" parent="1">
          <mxGeometry x="480" y="580" width="70" height="59" as="geometry" />
        </mxCell>
        <mxCell id="RbzYjNv_zatoaMsZqTDK-7" value="CRM" style="shape=umlActor;verticalLabelPosition=top;verticalAlign=bottom;html=1;strokeColor=#CC0066;strokeWidth=3;fontStyle=1;fontColor=#CC0066;fontFamily=Tahoma;labelPosition=center;align=center;spacingTop=0;spacingBottom=10;" vertex="1" parent="1">
          <mxGeometry x="890" y="530" width="40" height="80" as="geometry" />
        </mxCell>
        <mxCell id="RbzYjNv_zatoaMsZqTDK-8" value="Eliminar Cliente" style="ellipse;whiteSpace=wrap;html=1;fontFamily=Tahoma;fillColor=#fff2cc;strokeColor=#CC0066;strokeWidth=2;" vertex="1" parent="1">
          <mxGeometry x="1260" y="31" width="70" height="59" as="geometry" />
        </mxCell>
        <mxCell id="RbzYjNv_zatoaMsZqTDK-9" value="Ver&amp;nbsp;Cliente" style="ellipse;whiteSpace=wrap;html=1;fontFamily=Tahoma;fillColor=#fff2cc;strokeColor=#CC0066;strokeWidth=2;" vertex="1" parent="1">
          <mxGeometry x="480" y="500" width="70" height="59" as="geometry" />
        </mxCell>
        <mxCell id="RbzYjNv_zatoaMsZqTDK-10" value="Actualizar&lt;br&gt;Cliente" style="ellipse;whiteSpace=wrap;html=1;fontFamily=Tahoma;fillColor=#fff2cc;strokeColor=#CC0066;strokeWidth=2;" vertex="1" parent="1">
          <mxGeometry x="480" y="420" width="70" height="59" as="geometry" />
        </mxCell>
        <mxCell id="RbzYjNv_zatoaMsZqTDK-11" value="Crear Agente" style="ellipse;whiteSpace=wrap;html=1;fontFamily=Tahoma;fillColor=#fff2cc;strokeColor=#CC0066;strokeWidth=2;" vertex="1" parent="1">
          <mxGeometry x="1260" y="111" width="70" height="59" as="geometry" />
        </mxCell>
        <mxCell id="RbzYjNv_zatoaMsZqTDK-12" value="Agente" style="shape=umlActor;verticalLabelPosition=top;verticalAlign=bottom;html=1;strokeColor=#CC0066;strokeWidth=3;fontStyle=1;fontColor=#CC0066;fontFamily=Tahoma;spacingRight=0;labelBackgroundColor=none;labelPosition=center;align=center;spacingTop=0;spacingBottom=10margin:20px;" vertex="1" parent="1">
          <mxGeometry x="260" y="500" width="40" height="80" as="geometry" />
        </mxCell>
        <mxCell id="RbzYjNv_zatoaMsZqTDK-13" value="" style="endArrow=none;html=1;fontFamily=Tahoma;fontColor=#CC0066;strokeColor=#CC0066;strokeWidth=1;entryX=1;entryY=0.5;entryDx=0;entryDy=0;" edge="1" parent="1" source="RbzYjNv_zatoaMsZqTDK-1" target="RbzYjNv_zatoaMsZqTDK-6">
          <mxGeometry width="50" height="50" relative="1" as="geometry">
            <mxPoint x="530" y="460" as="sourcePoint" />
            <mxPoint x="580" y="410" as="targetPoint" />
          </mxGeometry>
        </mxCell>
        <mxCell id="RbzYjNv_zatoaMsZqTDK-14" value="" style="endArrow=none;html=1;fontFamily=Tahoma;fontColor=#CC0066;strokeColor=#CC0066;strokeWidth=1;entryX=1;entryY=0.5;entryDx=0;entryDy=0;" edge="1" parent="1" source="RbzYjNv_zatoaMsZqTDK-1" target="RbzYjNv_zatoaMsZqTDK-9">
          <mxGeometry width="50" height="50" relative="1" as="geometry">
            <mxPoint x="700" y="318.0952380952381" as="sourcePoint" />
            <mxPoint x="890.0000000000002" y="205" as="targetPoint" />
          </mxGeometry>
        </mxCell>
        <mxCell id="RbzYjNv_zatoaMsZqTDK-15" value="" style="endArrow=none;html=1;fontFamily=Tahoma;fontColor=#CC0066;strokeColor=#CC0066;strokeWidth=1;entryX=1;entryY=0.5;entryDx=0;entryDy=0;" edge="1" parent="1" source="RbzYjNv_zatoaMsZqTDK-1" target="RbzYjNv_zatoaMsZqTDK-10">
          <mxGeometry width="50" height="50" relative="1" as="geometry">
            <mxPoint x="700" y="273.33333333333326" as="sourcePoint" />
            <mxPoint x="890.0000000000002" y="305" as="targetPoint" />
          </mxGeometry>
        </mxCell>
        <mxCell id="RbzYjNv_zatoaMsZqTDK-16" value="" style="endArrow=none;html=1;fontFamily=Tahoma;fontColor=#CC0066;strokeColor=#CC0066;strokeWidth=1;entryX=0;entryY=1;entryDx=0;entryDy=0;" edge="1" parent="1" source="RbzYjNv_zatoaMsZqTDK-1" target="RbzYjNv_zatoaMsZqTDK-8">
          <mxGeometry width="50" height="50" relative="1" as="geometry">
            <mxPoint x="710" y="283.33333333333326" as="sourcePoint" />
            <mxPoint x="900.0000000000002" y="315" as="targetPoint" />
          </mxGeometry>
        </mxCell>
        <mxCell id="RbzYjNv_zatoaMsZqTDK-17" value="" style="endArrow=none;html=1;fontFamily=Tahoma;fontColor=#CC0066;strokeColor=#CC0066;strokeWidth=1;exitX=0;exitY=0.5;exitDx=0;exitDy=0;" edge="1" parent="1" source="RbzYjNv_zatoaMsZqTDK-10" target="RbzYjNv_zatoaMsZqTDK-12">
          <mxGeometry width="50" height="50" relative="1" as="geometry">
            <mxPoint x="820" y="540" as="sourcePoint" />
            <mxPoint x="740" y="510" as="targetPoint" />
          </mxGeometry>
        </mxCell>
        <mxCell id="RbzYjNv_zatoaMsZqTDK-18" value="" style="endArrow=none;html=1;fontFamily=Tahoma;fontColor=#CC0066;strokeColor=#CC0066;strokeWidth=1;exitX=0;exitY=0.5;exitDx=0;exitDy=0;" edge="1" parent="1" source="RbzYjNv_zatoaMsZqTDK-9" target="RbzYjNv_zatoaMsZqTDK-12">
          <mxGeometry width="50" height="50" relative="1" as="geometry">
            <mxPoint x="890.0000000000002" y="415" as="sourcePoint" />
            <mxPoint x="700" y="482.8571428571429" as="targetPoint" />
          </mxGeometry>
        </mxCell>
        <mxCell id="RbzYjNv_zatoaMsZqTDK-19" value="" style="endArrow=none;html=1;fontFamily=Tahoma;fontColor=#CC0066;strokeColor=#CC0066;strokeWidth=1;exitX=0;exitY=0.5;exitDx=0;exitDy=0;" edge="1" parent="1" source="RbzYjNv_zatoaMsZqTDK-6" target="RbzYjNv_zatoaMsZqTDK-12">
          <mxGeometry width="50" height="50" relative="1" as="geometry">
            <mxPoint x="890.0000000000002" y="305" as="sourcePoint" />
            <mxPoint x="700" y="472.3809523809524" as="targetPoint" />
          </mxGeometry>
        </mxCell>
        <mxCell id="RbzYjNv_zatoaMsZqTDK-20" value="" style="endArrow=none;html=1;fontFamily=Tahoma;fontColor=#CC0066;strokeColor=#CC0066;strokeWidth=1;entryX=1;entryY=0.5;entryDx=0;entryDy=0;" edge="1" parent="1" source="RbzYjNv_zatoaMsZqTDK-7" target="RbzYjNv_zatoaMsZqTDK-6">
          <mxGeometry width="50" height="50" relative="1" as="geometry">
            <mxPoint x="1250.0000000000002" y="350" as="sourcePoint" />
            <mxPoint x="1060" y="399.7619047619048" as="targetPoint" />
          </mxGeometry>
        </mxCell>
        <mxCell id="RbzYjNv_zatoaMsZqTDK-21" value="" style="endArrow=none;html=1;fontFamily=Tahoma;fontColor=#CC0066;strokeColor=#CC0066;strokeWidth=1;exitX=1;exitY=0.5;exitDx=0;exitDy=0;" edge="1" parent="1" source="RbzYjNv_zatoaMsZqTDK-9" target="RbzYjNv_zatoaMsZqTDK-7">
          <mxGeometry width="50" height="50" relative="1" as="geometry">
            <mxPoint x="1240" y="227.82608695652175" as="sourcePoint" />
            <mxPoint x="1029.9999999999993" y="205" as="targetPoint" />
          </mxGeometry>
        </mxCell>
        <mxCell id="RbzYjNv_zatoaMsZqTDK-22" value="" style="endArrow=none;html=1;fontFamily=Tahoma;fontColor=#CC0066;strokeColor=#CC0066;strokeWidth=1;exitX=1;exitY=0.5;exitDx=0;exitDy=0;" edge="1" parent="1" source="RbzYjNv_zatoaMsZqTDK-10" target="RbzYjNv_zatoaMsZqTDK-7">
          <mxGeometry width="50" height="50" relative="1" as="geometry">
            <mxPoint x="1250" y="237.82608695652175" as="sourcePoint" />
            <mxPoint x="1039.9999999999993" y="215" as="targetPoint" />
          </mxGeometry>
        </mxCell>
        <mxCell id="RbzYjNv_zatoaMsZqTDK-23" value="" style="endArrow=none;html=1;fontFamily=Tahoma;fontColor=#CC0066;strokeColor=#CC0066;strokeWidth=1;exitX=0;exitY=0.5;exitDx=0;exitDy=0;" edge="1" parent="1" source="RbzYjNv_zatoaMsZqTDK-8" target="RbzYjNv_zatoaMsZqTDK-7">
          <mxGeometry width="50" height="50" relative="1" as="geometry">
            <mxPoint x="1260" y="247.82608695652175" as="sourcePoint" />
            <mxPoint x="1260" y="250" as="targetPoint" />
          </mxGeometry>
        </mxCell>
        <mxCell id="RbzYjNv_zatoaMsZqTDK-25" value="" style="endArrow=none;html=1;fontFamily=Tahoma;fontColor=#CC0066;strokeColor=#CC0066;strokeWidth=1;entryX=0;entryY=1;entryDx=0;entryDy=0;" edge="1" parent="1" source="RbzYjNv_zatoaMsZqTDK-1" target="RbzYjNv_zatoaMsZqTDK-11">
          <mxGeometry width="50" height="50" relative="1" as="geometry">
            <mxPoint x="740" y="635.3739612188367" as="sourcePoint" />
            <mxPoint x="900.5" y="518" as="targetPoint" />
          </mxGeometry>
        </mxCell>
        <mxCell id="RbzYjNv_zatoaMsZqTDK-26" value="Actualizar Agente" style="ellipse;whiteSpace=wrap;html=1;fontFamily=Tahoma;fillColor=#fff2cc;strokeColor=#CC0066;strokeWidth=2;" vertex="1" parent="1">
          <mxGeometry x="1260" y="301" width="70" height="59" as="geometry" />
        </mxCell>
        <mxCell id="RbzYjNv_zatoaMsZqTDK-27" value="Eliminar Agente" style="ellipse;whiteSpace=wrap;html=1;fontFamily=Tahoma;fillColor=#fff2cc;strokeColor=#CC0066;strokeWidth=2;" vertex="1" parent="1">
          <mxGeometry x="1260" y="221" width="70" height="59" as="geometry" />
        </mxCell>
        <mxCell id="RbzYjNv_zatoaMsZqTDK-28" value="Eliminar Grupo" style="ellipse;whiteSpace=wrap;html=1;fontFamily=Tahoma;fillColor=#fff2cc;strokeColor=#CC0066;strokeWidth=2;" vertex="1" parent="1">
          <mxGeometry x="1260" y="452" width="70" height="59" as="geometry" />
        </mxCell>
        <mxCell id="RbzYjNv_zatoaMsZqTDK-29" value="Cerrar Sesión" style="ellipse;whiteSpace=wrap;html=1;fontFamily=Tahoma;fillColor=#fff2cc;strokeColor=#CC0066;strokeWidth=2;" vertex="1" parent="1">
          <mxGeometry x="480" y="680.5" width="70" height="59" as="geometry" />
        </mxCell>
        <mxCell id="RbzYjNv_zatoaMsZqTDK-30" value="Iniciar Sesión" style="ellipse;whiteSpace=wrap;html=1;fontFamily=Tahoma;fillColor=#fff2cc;strokeColor=#CC0066;strokeWidth=2;" vertex="1" parent="1">
          <mxGeometry x="480" y="760" width="70" height="59" as="geometry" />
        </mxCell>
        <mxCell id="RbzYjNv_zatoaMsZqTDK-31" value="" style="endArrow=none;html=1;fontFamily=Tahoma;fontColor=#CC0066;strokeColor=#CC0066;strokeWidth=1;entryX=1;entryY=0.5;entryDx=0;entryDy=0;" edge="1" parent="1" source="RbzYjNv_zatoaMsZqTDK-1" target="RbzYjNv_zatoaMsZqTDK-29">
          <mxGeometry width="50" height="50" relative="1" as="geometry">
            <mxPoint x="980" y="797.2990777338603" as="sourcePoint" />
            <mxPoint x="620.5" y="569" as="targetPoint" />
          </mxGeometry>
        </mxCell>
        <mxCell id="RbzYjNv_zatoaMsZqTDK-32" value="" style="endArrow=none;html=1;fontFamily=Tahoma;fontColor=#CC0066;strokeColor=#CC0066;strokeWidth=1;entryX=1;entryY=0.5;entryDx=0;entryDy=0;" edge="1" parent="1" source="RbzYjNv_zatoaMsZqTDK-1" target="RbzYjNv_zatoaMsZqTDK-30">
          <mxGeometry width="50" height="50" relative="1" as="geometry">
            <mxPoint x="990" y="807.2990777338603" as="sourcePoint" />
            <mxPoint x="630.5" y="579" as="targetPoint" />
          </mxGeometry>
        </mxCell>
        <mxCell id="RbzYjNv_zatoaMsZqTDK-33" value="" style="endArrow=none;html=1;fontFamily=Tahoma;fontColor=#CC0066;strokeColor=#CC0066;strokeWidth=1;entryX=0;entryY=0.5;entryDx=0;entryDy=0;" edge="1" parent="1" source="RbzYjNv_zatoaMsZqTDK-12" target="RbzYjNv_zatoaMsZqTDK-30">
          <mxGeometry width="50" height="50" relative="1" as="geometry">
            <mxPoint x="980" y="806.0262725779969" as="sourcePoint" />
            <mxPoint x="390.99999999999955" y="689" as="targetPoint" />
          </mxGeometry>
        </mxCell>
        <mxCell id="RbzYjNv_zatoaMsZqTDK-35" value="Ver Grupo" style="ellipse;whiteSpace=wrap;html=1;fontFamily=Tahoma;fillColor=#fff2cc;strokeColor=#CC0066;strokeWidth=2;" vertex="1" parent="1">
          <mxGeometry x="1260" y="381" width="70" height="59" as="geometry" />
        </mxCell>
        <mxCell id="RbzYjNv_zatoaMsZqTDK-39" value="Crear Grupo" style="ellipse;whiteSpace=wrap;html=1;fontFamily=Tahoma;fillColor=#fff2cc;strokeColor=#CC0066;strokeWidth=2;" vertex="1" parent="1">
          <mxGeometry x="1260" y="541" width="70" height="59" as="geometry" />
        </mxCell>
        <mxCell id="RbzYjNv_zatoaMsZqTDK-40" value="Actualizar Grupo" style="ellipse;whiteSpace=wrap;html=1;fontFamily=Tahoma;fillColor=#fff2cc;strokeColor=#CC0066;strokeWidth=2;" vertex="1" parent="1">
          <mxGeometry x="1260" y="621" width="70" height="59" as="geometry" />
        </mxCell>
        <mxCell id="RbzYjNv_zatoaMsZqTDK-44" value="Crear Rol" style="ellipse;whiteSpace=wrap;html=1;fontFamily=Tahoma;fillColor=#fff2cc;strokeColor=#CC0066;strokeWidth=2;" vertex="1" parent="1">
          <mxGeometry x="1260" y="871" width="70" height="59" as="geometry" />
        </mxCell>
        <mxCell id="RbzYjNv_zatoaMsZqTDK-45" value="Eliminar Rol" style="ellipse;whiteSpace=wrap;html=1;fontFamily=Tahoma;fillColor=#fff2cc;strokeColor=#CC0066;strokeWidth=2;" vertex="1" parent="1">
          <mxGeometry x="1260" y="781" width="70" height="59" as="geometry" />
        </mxCell>
        <mxCell id="RbzYjNv_zatoaMsZqTDK-46" value="Actualizar Rol" style="ellipse;whiteSpace=wrap;html=1;fontFamily=Tahoma;fillColor=#fff2cc;strokeColor=#CC0066;strokeWidth=2;" vertex="1" parent="1">
          <mxGeometry x="1260" y="691" width="70" height="59" as="geometry" />
        </mxCell>
        <mxCell id="RbzYjNv_zatoaMsZqTDK-47" value="Ver Rol" style="ellipse;whiteSpace=wrap;html=1;fontFamily=Tahoma;fillColor=#fff2cc;strokeColor=#CC0066;strokeWidth=2;" vertex="1" parent="1">
          <mxGeometry x="1260" y="961" width="70" height="59" as="geometry" />
        </mxCell>
        <mxCell id="RbzYjNv_zatoaMsZqTDK-48" value="" style="endArrow=none;html=1;fontFamily=Tahoma;fontColor=#CC0066;strokeColor=#CC0066;strokeWidth=1;entryX=1;entryY=0.5;entryDx=0;entryDy=0;" edge="1" parent="1" source="RbzYjNv_zatoaMsZqTDK-7" target="RbzYjNv_zatoaMsZqTDK-29">
          <mxGeometry width="50" height="50" relative="1" as="geometry">
            <mxPoint x="950" y="180.08583690987143" as="sourcePoint" />
            <mxPoint x="620.5000000000005" y="511" as="targetPoint" />
          </mxGeometry>
        </mxCell>
        <mxCell id="RbzYjNv_zatoaMsZqTDK-49" value="" style="endArrow=none;html=1;fontFamily=Tahoma;fontColor=#CC0066;strokeColor=#CC0066;strokeWidth=1;entryX=1;entryY=0.5;entryDx=0;entryDy=0;" edge="1" parent="1" source="RbzYjNv_zatoaMsZqTDK-7" target="RbzYjNv_zatoaMsZqTDK-30">
          <mxGeometry width="50" height="50" relative="1" as="geometry">
            <mxPoint x="950" y="176.7109295199184" as="sourcePoint" />
            <mxPoint x="480.5" y="569" as="targetPoint" />
          </mxGeometry>
        </mxCell>
        <mxCell id="RbzYjNv_zatoaMsZqTDK-50" value="Asignar cliente a agente" style="ellipse;whiteSpace=wrap;html=1;fontFamily=Tahoma;fillColor=#fff2cc;strokeColor=#CC0066;strokeWidth=2;" vertex="1" parent="1">
          <mxGeometry x="480" y="180" width="70" height="59" as="geometry" />
        </mxCell>
        <mxCell id="RbzYjNv_zatoaMsZqTDK-53" value="Asignar cliente a grupo" style="ellipse;whiteSpace=wrap;html=1;fontFamily=Tahoma;fillColor=#fff2cc;strokeColor=#CC0066;strokeWidth=2;" vertex="1" parent="1">
          <mxGeometry x="1260" y="1051" width="70" height="58" as="geometry" />
        </mxCell>
        <mxCell id="RbzYjNv_zatoaMsZqTDK-54" value="Enviar Mensaje" style="ellipse;whiteSpace=wrap;html=1;fontFamily=Tahoma;fillColor=#fff2cc;strokeColor=#CC0066;strokeWidth=2;" vertex="1" parent="1">
          <mxGeometry x="480" y="250" width="70" height="59" as="geometry" />
        </mxCell>
        <mxCell id="RbzYjNv_zatoaMsZqTDK-55" value="Enviar Archivo" style="ellipse;whiteSpace=wrap;html=1;fontFamily=Tahoma;fillColor=#fff2cc;strokeColor=#CC0066;strokeWidth=2;" vertex="1" parent="1">
          <mxGeometry x="480" y="330" width="70" height="59" as="geometry" />
        </mxCell>
        <mxCell id="RbzYjNv_zatoaMsZqTDK-59" value="" style="endArrow=none;html=1;fontFamily=Tahoma;fontColor=#CC0066;strokeColor=#CC0066;strokeWidth=1;" edge="1" parent="1" source="RbzYjNv_zatoaMsZqTDK-12" target="RbzYjNv_zatoaMsZqTDK-55">
          <mxGeometry width="50" height="50" relative="1" as="geometry">
            <mxPoint x="170" y="488.2878869960414" as="sourcePoint" />
            <mxPoint x="320.5316952237531" y="618.4066338135801" as="targetPoint" />
          </mxGeometry>
        </mxCell>
        <mxCell id="RbzYjNv_zatoaMsZqTDK-60" value="" style="endArrow=none;html=1;fontFamily=Tahoma;fontColor=#CC0066;strokeColor=#CC0066;strokeWidth=1;entryX=0;entryY=0.5;entryDx=0;entryDy=0;" edge="1" parent="1" source="RbzYjNv_zatoaMsZqTDK-7" target="RbzYjNv_zatoaMsZqTDK-28">
          <mxGeometry width="50" height="50" relative="1" as="geometry">
            <mxPoint x="30" y="58.90495925291185" as="sourcePoint" />
            <mxPoint x="581.8200000000002" y="40.00399999999996" as="targetPoint" />
          </mxGeometry>
        </mxCell>
        <mxCell id="RbzYjNv_zatoaMsZqTDK-61" value="" style="endArrow=none;html=1;fontFamily=Tahoma;fontColor=#CC0066;strokeColor=#CC0066;strokeWidth=1;entryX=0;entryY=0.5;entryDx=0;entryDy=0;" edge="1" parent="1" source="RbzYjNv_zatoaMsZqTDK-7" target="RbzYjNv_zatoaMsZqTDK-11">
          <mxGeometry width="50" height="50" relative="1" as="geometry">
            <mxPoint x="40" y="68.9049592529118" as="sourcePoint" />
            <mxPoint x="591.8200000000002" y="50.003999999999905" as="targetPoint" />
          </mxGeometry>
        </mxCell>
        <mxCell id="RbzYjNv_zatoaMsZqTDK-62" value="" style="endArrow=none;html=1;fontFamily=Tahoma;fontColor=#CC0066;strokeColor=#CC0066;strokeWidth=1;exitX=1;exitY=0.5;exitDx=0;exitDy=0;" edge="1" parent="1" source="RbzYjNv_zatoaMsZqTDK-55" target="RbzYjNv_zatoaMsZqTDK-7">
          <mxGeometry width="50" height="50" relative="1" as="geometry">
            <mxPoint x="50" y="78.9049592529118" as="sourcePoint" />
            <mxPoint x="601.8200000000002" y="60.003999999999905" as="targetPoint" />
          </mxGeometry>
        </mxCell>
        <mxCell id="RbzYjNv_zatoaMsZqTDK-63" value="" style="endArrow=none;html=1;fontFamily=Tahoma;fontColor=#CC0066;strokeColor=#CC0066;strokeWidth=1;exitX=1;exitY=0.5;exitDx=0;exitDy=0;" edge="1" parent="1" source="RbzYjNv_zatoaMsZqTDK-50" target="RbzYjNv_zatoaMsZqTDK-7">
          <mxGeometry width="50" height="50" relative="1" as="geometry">
            <mxPoint x="60" y="88.9049592529118" as="sourcePoint" />
            <mxPoint x="611.8200000000002" y="70.0039999999999" as="targetPoint" />
          </mxGeometry>
        </mxCell>
        <mxCell id="RbzYjNv_zatoaMsZqTDK-64" value="" style="endArrow=none;html=1;fontFamily=Tahoma;fontColor=#CC0066;strokeColor=#CC0066;strokeWidth=1;entryX=0;entryY=0.5;entryDx=0;entryDy=0;" edge="1" parent="1" source="RbzYjNv_zatoaMsZqTDK-12" target="RbzYjNv_zatoaMsZqTDK-54">
          <mxGeometry width="50" height="50" relative="1" as="geometry">
            <mxPoint x="59.09" y="168.9049592529118" as="sourcePoint" />
            <mxPoint x="610.9100000000002" y="150.0039999999999" as="targetPoint" />
          </mxGeometry>
        </mxCell>
        <mxCell id="RbzYjNv_zatoaMsZqTDK-65" value="" style="endArrow=none;html=1;fontFamily=Tahoma;fontColor=#CC0066;strokeColor=#CC0066;strokeWidth=1;entryX=0;entryY=0.5;entryDx=0;entryDy=0;" edge="1" parent="1" source="RbzYjNv_zatoaMsZqTDK-7" target="RbzYjNv_zatoaMsZqTDK-35">
          <mxGeometry width="50" height="50" relative="1" as="geometry">
            <mxPoint x="30" y="58.904959252911794" as="sourcePoint" />
            <mxPoint x="581.8200000000002" y="40.003999999999905" as="targetPoint" />
          </mxGeometry>
        </mxCell>
        <mxCell id="RbzYjNv_zatoaMsZqTDK-66" value="" style="endArrow=none;html=1;fontFamily=Tahoma;fontColor=#CC0066;strokeColor=#CC0066;strokeWidth=1;exitX=1;exitY=0.5;exitDx=0;exitDy=0;" edge="1" parent="1" source="RbzYjNv_zatoaMsZqTDK-50" target="RbzYjNv_zatoaMsZqTDK-1">
          <mxGeometry width="50" height="50" relative="1" as="geometry">
            <mxPoint x="40" y="68.9049592529118" as="sourcePoint" />
            <mxPoint x="591.8200000000002" y="50.003999999999905" as="targetPoint" />
          </mxGeometry>
        </mxCell>
        <mxCell id="RbzYjNv_zatoaMsZqTDK-67" value="" style="endArrow=none;html=1;fontFamily=Tahoma;fontColor=#CC0066;strokeColor=#CC0066;strokeWidth=1;entryX=0;entryY=0.5;entryDx=0;entryDy=0;" edge="1" parent="1" source="RbzYjNv_zatoaMsZqTDK-7" target="RbzYjNv_zatoaMsZqTDK-26">
          <mxGeometry width="50" height="50" relative="1" as="geometry">
            <mxPoint x="30" y="58.904959252911794" as="sourcePoint" />
            <mxPoint x="581.8200000000002" y="40.003999999999905" as="targetPoint" />
          </mxGeometry>
        </mxCell>
        <mxCell id="RbzYjNv_zatoaMsZqTDK-68" value="" style="endArrow=none;html=1;fontFamily=Tahoma;fontColor=#CC0066;strokeColor=#CC0066;strokeWidth=1;exitX=1;exitY=0.5;exitDx=0;exitDy=0;" edge="1" parent="1" source="RbzYjNv_zatoaMsZqTDK-54" target="RbzYjNv_zatoaMsZqTDK-1">
          <mxGeometry width="50" height="50" relative="1" as="geometry">
            <mxPoint x="840" y="439" as="sourcePoint" />
            <mxPoint x="591.8200000000002" y="50.003999999999905" as="targetPoint" />
          </mxGeometry>
        </mxCell>
        <mxCell id="RbzYjNv_zatoaMsZqTDK-69" value="" style="endArrow=none;html=1;fontFamily=Tahoma;fontColor=#CC0066;strokeColor=#CC0066;strokeWidth=1;exitX=1;exitY=0.5;exitDx=0;exitDy=0;" edge="1" parent="1" source="RbzYjNv_zatoaMsZqTDK-54" target="RbzYjNv_zatoaMsZqTDK-7">
          <mxGeometry width="50" height="50" relative="1" as="geometry">
            <mxPoint x="50" y="78.9049592529118" as="sourcePoint" />
            <mxPoint x="601.8200000000002" y="60.003999999999905" as="targetPoint" />
          </mxGeometry>
        </mxCell>
        <mxCell id="RbzYjNv_zatoaMsZqTDK-70" value="" style="endArrow=none;html=1;fontFamily=Tahoma;fontColor=#CC0066;strokeColor=#CC0066;strokeWidth=1;entryX=0;entryY=0.5;entryDx=0;entryDy=0;" edge="1" parent="1" source="RbzYjNv_zatoaMsZqTDK-12" target="RbzYjNv_zatoaMsZqTDK-50">
          <mxGeometry width="50" height="50" relative="1" as="geometry">
            <mxPoint x="60" y="88.9049592529118" as="sourcePoint" />
            <mxPoint x="611.8200000000002" y="70.0039999999999" as="targetPoint" />
          </mxGeometry>
        </mxCell>
        <mxCell id="RbzYjNv_zatoaMsZqTDK-71" value="" style="endArrow=none;html=1;fontFamily=Tahoma;fontColor=#CC0066;strokeColor=#CC0066;strokeWidth=1;entryX=0;entryY=0.5;entryDx=0;entryDy=0;" edge="1" parent="1" source="RbzYjNv_zatoaMsZqTDK-7" target="RbzYjNv_zatoaMsZqTDK-27">
          <mxGeometry width="50" height="50" relative="1" as="geometry">
            <mxPoint x="30" y="58.904959252911794" as="sourcePoint" />
            <mxPoint x="581.8200000000002" y="40.003999999999905" as="targetPoint" />
          </mxGeometry>
        </mxCell>
        <mxCell id="RbzYjNv_zatoaMsZqTDK-72" value="" style="endArrow=none;html=1;fontFamily=Tahoma;fontColor=#CC0066;strokeColor=#CC0066;strokeWidth=1;exitX=1;exitY=0.5;exitDx=0;exitDy=0;" edge="1" parent="1" source="RbzYjNv_zatoaMsZqTDK-55" target="RbzYjNv_zatoaMsZqTDK-1">
          <mxGeometry width="50" height="50" relative="1" as="geometry">
            <mxPoint x="40" y="68.9049592529118" as="sourcePoint" />
            <mxPoint x="591.8200000000002" y="50.003999999999905" as="targetPoint" />
          </mxGeometry>
        </mxCell>
        <mxCell id="RbzYjNv_zatoaMsZqTDK-73" value="" style="endArrow=none;html=1;fontFamily=Tahoma;fontColor=#CC0066;strokeColor=#CC0066;strokeWidth=2;" edge="1" parent="1">
          <mxGeometry width="50" height="50" relative="1" as="geometry">
            <mxPoint x="840" y="340.0045161290322" as="sourcePoint" />
            <mxPoint x="950" y="400" as="targetPoint" />
          </mxGeometry>
        </mxCell>
        <mxCell id="RbzYjNv_zatoaMsZqTDK-74" value="" style="endArrow=none;html=1;fontFamily=Tahoma;fontColor=#CC0066;strokeColor=#CC0066;strokeWidth=2;" edge="1" parent="1">
          <mxGeometry width="50" height="50" relative="1" as="geometry">
            <mxPoint x="850" y="350.00451612903225" as="sourcePoint" />
            <mxPoint x="960" y="410" as="targetPoint" />
          </mxGeometry>
        </mxCell>
        <mxCell id="RbzYjNv_zatoaMsZqTDK-75" value="" style="endArrow=none;html=1;fontFamily=Tahoma;fontColor=#CC0066;strokeColor=#CC0066;strokeWidth=1;entryX=0;entryY=0.5;entryDx=0;entryDy=0;" edge="1" parent="1" source="RbzYjNv_zatoaMsZqTDK-1" target="RbzYjNv_zatoaMsZqTDK-26">
          <mxGeometry width="50" height="50" relative="1" as="geometry">
            <mxPoint x="730" y="50.004516129032254" as="sourcePoint" />
            <mxPoint x="840" y="110" as="targetPoint" />
          </mxGeometry>
        </mxCell>
        <mxCell id="RbzYjNv_zatoaMsZqTDK-76" value="" style="endArrow=none;html=1;fontFamily=Tahoma;fontColor=#CC0066;strokeColor=#CC0066;strokeWidth=1;entryX=0;entryY=0.5;entryDx=0;entryDy=0;" edge="1" parent="1" source="RbzYjNv_zatoaMsZqTDK-1" target="RbzYjNv_zatoaMsZqTDK-27">
          <mxGeometry width="50" height="50" relative="1" as="geometry">
            <mxPoint x="1070" y="830" as="sourcePoint" />
            <mxPoint x="850" y="120" as="targetPoint" />
          </mxGeometry>
        </mxCell>
        <mxCell id="RbzYjNv_zatoaMsZqTDK-77" value="" style="endArrow=none;html=1;fontFamily=Tahoma;fontColor=#CC0066;strokeColor=#CC0066;strokeWidth=2;" edge="1" parent="1">
          <mxGeometry width="50" height="50" relative="1" as="geometry">
            <mxPoint x="840" y="340.00451612903225" as="sourcePoint" />
            <mxPoint x="950" y="400" as="targetPoint" />
          </mxGeometry>
        </mxCell>
        <mxCell id="RbzYjNv_zatoaMsZqTDK-78" value="" style="endArrow=none;html=1;fontFamily=Tahoma;fontColor=#CC0066;strokeColor=#CC0066;strokeWidth=2;" edge="1" parent="1">
          <mxGeometry width="50" height="50" relative="1" as="geometry">
            <mxPoint x="850" y="350.00451612903225" as="sourcePoint" />
            <mxPoint x="960" y="410" as="targetPoint" />
          </mxGeometry>
        </mxCell>
        <mxCell id="RbzYjNv_zatoaMsZqTDK-79" value="" style="endArrow=none;html=1;fontFamily=Tahoma;fontColor=#CC0066;strokeColor=#CC0066;strokeWidth=2;" edge="1" parent="1">
          <mxGeometry width="50" height="50" relative="1" as="geometry">
            <mxPoint x="840" y="340.00451612903225" as="sourcePoint" />
            <mxPoint x="950" y="400" as="targetPoint" />
          </mxGeometry>
        </mxCell>
        <mxCell id="RbzYjNv_zatoaMsZqTDK-80" value="" style="endArrow=none;html=1;fontFamily=Tahoma;fontColor=#CC0066;strokeColor=#CC0066;strokeWidth=2;" edge="1" parent="1">
          <mxGeometry width="50" height="50" relative="1" as="geometry">
            <mxPoint x="840" y="340.00451612903225" as="sourcePoint" />
            <mxPoint x="950" y="400" as="targetPoint" />
          </mxGeometry>
        </mxCell>
        <mxCell id="RbzYjNv_zatoaMsZqTDK-81" value="" style="endArrow=none;html=1;fontFamily=Tahoma;fontColor=#CC0066;strokeColor=#CC0066;strokeWidth=2;" edge="1" parent="1">
          <mxGeometry width="50" height="50" relative="1" as="geometry">
            <mxPoint x="840" y="340.00451612903225" as="sourcePoint" />
            <mxPoint x="950" y="400" as="targetPoint" />
          </mxGeometry>
        </mxCell>
        <mxCell id="RbzYjNv_zatoaMsZqTDK-82" value="" style="endArrow=none;html=1;fontFamily=Tahoma;fontColor=#CC0066;strokeColor=#CC0066;strokeWidth=2;" edge="1" parent="1">
          <mxGeometry width="50" height="50" relative="1" as="geometry">
            <mxPoint x="850" y="350.00451612903225" as="sourcePoint" />
            <mxPoint x="960" y="410" as="targetPoint" />
          </mxGeometry>
        </mxCell>
        <mxCell id="RbzYjNv_zatoaMsZqTDK-83" value="" style="endArrow=none;html=1;fontFamily=Tahoma;fontColor=#CC0066;strokeColor=#CC0066;strokeWidth=2;" edge="1" parent="1">
          <mxGeometry width="50" height="50" relative="1" as="geometry">
            <mxPoint x="840" y="340.00451612903225" as="sourcePoint" />
            <mxPoint x="950" y="400" as="targetPoint" />
          </mxGeometry>
        </mxCell>
        <mxCell id="RbzYjNv_zatoaMsZqTDK-84" value="" style="endArrow=none;html=1;fontFamily=Tahoma;fontColor=#CC0066;strokeColor=#CC0066;strokeWidth=1;entryX=0;entryY=0.5;entryDx=0;entryDy=0;" edge="1" parent="1" source="RbzYjNv_zatoaMsZqTDK-1" target="RbzYjNv_zatoaMsZqTDK-46">
          <mxGeometry width="50" height="50" relative="1" as="geometry">
            <mxPoint x="720" y="40.004516129032254" as="sourcePoint" />
            <mxPoint x="830" y="100" as="targetPoint" />
          </mxGeometry>
        </mxCell>
        <mxCell id="RbzYjNv_zatoaMsZqTDK-85" value="" style="endArrow=none;html=1;fontFamily=Tahoma;fontColor=#CC0066;strokeColor=#CC0066;strokeWidth=1;entryX=0;entryY=0.5;entryDx=0;entryDy=0;" edge="1" parent="1" source="RbzYjNv_zatoaMsZqTDK-1" target="RbzYjNv_zatoaMsZqTDK-45">
          <mxGeometry width="50" height="50" relative="1" as="geometry">
            <mxPoint x="710" y="30.004516129032254" as="sourcePoint" />
            <mxPoint x="820" y="90" as="targetPoint" />
          </mxGeometry>
        </mxCell>
        <mxCell id="RbzYjNv_zatoaMsZqTDK-86" value="" style="endArrow=none;html=1;fontFamily=Tahoma;fontColor=#CC0066;strokeColor=#CC0066;strokeWidth=1;entryX=0;entryY=0.5;entryDx=0;entryDy=0;" edge="1" parent="1" source="RbzYjNv_zatoaMsZqTDK-1" target="RbzYjNv_zatoaMsZqTDK-40">
          <mxGeometry width="50" height="50" relative="1" as="geometry">
            <mxPoint x="710" y="30.004516129032254" as="sourcePoint" />
            <mxPoint x="820" y="90" as="targetPoint" />
          </mxGeometry>
        </mxCell>
        <mxCell id="RbzYjNv_zatoaMsZqTDK-87" value="" style="endArrow=none;html=1;fontFamily=Tahoma;fontColor=#CC0066;strokeColor=#CC0066;strokeWidth=1;entryX=0;entryY=0.5;entryDx=0;entryDy=0;" edge="1" parent="1" source="RbzYjNv_zatoaMsZqTDK-1" target="RbzYjNv_zatoaMsZqTDK-39">
          <mxGeometry width="50" height="50" relative="1" as="geometry">
            <mxPoint x="720" y="40.004516129032254" as="sourcePoint" />
            <mxPoint x="830" y="100" as="targetPoint" />
          </mxGeometry>
        </mxCell>
        <mxCell id="RbzYjNv_zatoaMsZqTDK-88" value="" style="endArrow=none;html=1;fontFamily=Tahoma;fontColor=#CC0066;strokeColor=#CC0066;strokeWidth=1;entryX=0;entryY=0.5;entryDx=0;entryDy=0;" edge="1" parent="1" source="RbzYjNv_zatoaMsZqTDK-1" target="RbzYjNv_zatoaMsZqTDK-44">
          <mxGeometry width="50" height="50" relative="1" as="geometry">
            <mxPoint x="730" y="50.004516129032254" as="sourcePoint" />
            <mxPoint x="840" y="110" as="targetPoint" />
          </mxGeometry>
        </mxCell>
        <mxCell id="RbzYjNv_zatoaMsZqTDK-89" value="" style="endArrow=none;html=1;fontFamily=Tahoma;fontColor=#CC0066;strokeColor=#CC0066;strokeWidth=1;exitX=0;exitY=0.5;exitDx=0;exitDy=0;" edge="1" parent="1" source="RbzYjNv_zatoaMsZqTDK-53" target="RbzYjNv_zatoaMsZqTDK-1">
          <mxGeometry width="50" height="50" relative="1" as="geometry">
            <mxPoint x="740" y="60.004516129032254" as="sourcePoint" />
            <mxPoint x="850" y="120" as="targetPoint" />
          </mxGeometry>
        </mxCell>
        <mxCell id="RbzYjNv_zatoaMsZqTDK-90" value="" style="endArrow=none;html=1;fontFamily=Tahoma;fontColor=#CC0066;strokeColor=#CC0066;strokeWidth=1;entryX=0;entryY=0.5;entryDx=0;entryDy=0;" edge="1" parent="1" source="RbzYjNv_zatoaMsZqTDK-1" target="RbzYjNv_zatoaMsZqTDK-28">
          <mxGeometry width="50" height="50" relative="1" as="geometry">
            <mxPoint x="710" y="30.004516129032254" as="sourcePoint" />
            <mxPoint x="820" y="90" as="targetPoint" />
          </mxGeometry>
        </mxCell>
        <mxCell id="RbzYjNv_zatoaMsZqTDK-91" value="" style="endArrow=none;html=1;fontFamily=Tahoma;fontColor=#CC0066;strokeColor=#CC0066;strokeWidth=1;entryX=0;entryY=0.5;entryDx=0;entryDy=0;" edge="1" parent="1" source="RbzYjNv_zatoaMsZqTDK-1" target="RbzYjNv_zatoaMsZqTDK-35">
          <mxGeometry width="50" height="50" relative="1" as="geometry">
            <mxPoint x="720" y="40.004516129032254" as="sourcePoint" />
            <mxPoint x="830" y="100" as="targetPoint" />
          </mxGeometry>
        </mxCell>
        <mxCell id="RbzYjNv_zatoaMsZqTDK-92" value="" style="endArrow=none;html=1;fontFamily=Tahoma;fontColor=#CC0066;strokeColor=#CC0066;strokeWidth=1;entryX=0;entryY=0.5;entryDx=0;entryDy=0;" edge="1" parent="1" source="RbzYjNv_zatoaMsZqTDK-1" target="RbzYjNv_zatoaMsZqTDK-47">
          <mxGeometry width="50" height="50" relative="1" as="geometry">
            <mxPoint x="730" y="50.004516129032254" as="sourcePoint" />
            <mxPoint x="840" y="110" as="targetPoint" />
          </mxGeometry>
        </mxCell>
        <mxCell id="RbzYjNv_zatoaMsZqTDK-93" value="" style="endArrow=none;html=1;fontFamily=Tahoma;fontColor=#CC0066;strokeColor=#CC0066;strokeWidth=1;entryX=0;entryY=0.5;entryDx=0;entryDy=0;" edge="1" parent="1" source="RbzYjNv_zatoaMsZqTDK-7" target="RbzYjNv_zatoaMsZqTDK-53">
          <mxGeometry width="50" height="50" relative="1" as="geometry">
            <mxPoint x="740" y="60.004516129032254" as="sourcePoint" />
            <mxPoint x="850" y="120" as="targetPoint" />
          </mxGeometry>
        </mxCell>
        <mxCell id="RbzYjNv_zatoaMsZqTDK-94" value="" style="endArrow=none;html=1;fontFamily=Tahoma;fontColor=#CC0066;strokeColor=#CC0066;strokeWidth=1;entryX=0;entryY=0.5;entryDx=0;entryDy=0;" edge="1" parent="1" source="RbzYjNv_zatoaMsZqTDK-7" target="RbzYjNv_zatoaMsZqTDK-44">
          <mxGeometry width="50" height="50" relative="1" as="geometry">
            <mxPoint x="750" y="70.00451612903225" as="sourcePoint" />
            <mxPoint x="860" y="130" as="targetPoint" />
          </mxGeometry>
        </mxCell>
        <mxCell id="RbzYjNv_zatoaMsZqTDK-95" value="" style="endArrow=none;html=1;fontFamily=Tahoma;fontColor=#CC0066;strokeColor=#CC0066;strokeWidth=1;entryX=0;entryY=0.5;entryDx=0;entryDy=0;" edge="1" parent="1" source="RbzYjNv_zatoaMsZqTDK-7" target="RbzYjNv_zatoaMsZqTDK-45">
          <mxGeometry width="50" height="50" relative="1" as="geometry">
            <mxPoint x="760" y="80.00451612903225" as="sourcePoint" />
            <mxPoint x="870" y="140" as="targetPoint" />
          </mxGeometry>
        </mxCell>
        <mxCell id="RbzYjNv_zatoaMsZqTDK-96" value="" style="endArrow=none;html=1;fontFamily=Tahoma;fontColor=#CC0066;strokeColor=#CC0066;strokeWidth=1;entryX=0;entryY=0.5;entryDx=0;entryDy=0;" edge="1" parent="1" source="RbzYjNv_zatoaMsZqTDK-7" target="RbzYjNv_zatoaMsZqTDK-46">
          <mxGeometry width="50" height="50" relative="1" as="geometry">
            <mxPoint x="770" y="90.00451612903225" as="sourcePoint" />
            <mxPoint x="880" y="150" as="targetPoint" />
          </mxGeometry>
        </mxCell>
        <mxCell id="RbzYjNv_zatoaMsZqTDK-97" value="" style="endArrow=none;html=1;fontFamily=Tahoma;fontColor=#CC0066;strokeColor=#CC0066;strokeWidth=1;entryX=0;entryY=0.5;entryDx=0;entryDy=0;" edge="1" parent="1" source="RbzYjNv_zatoaMsZqTDK-7" target="RbzYjNv_zatoaMsZqTDK-40">
          <mxGeometry width="50" height="50" relative="1" as="geometry">
            <mxPoint x="780" y="100.00451612903225" as="sourcePoint" />
            <mxPoint x="890" y="160" as="targetPoint" />
          </mxGeometry>
        </mxCell>
        <mxCell id="RbzYjNv_zatoaMsZqTDK-98" value="" style="endArrow=none;html=1;fontFamily=Tahoma;fontColor=#CC0066;strokeColor=#CC0066;strokeWidth=1;entryX=0;entryY=0.5;entryDx=0;entryDy=0;" edge="1" parent="1" source="RbzYjNv_zatoaMsZqTDK-7" target="RbzYjNv_zatoaMsZqTDK-39">
          <mxGeometry width="50" height="50" relative="1" as="geometry">
            <mxPoint x="790" y="110.00451612903225" as="sourcePoint" />
            <mxPoint x="900" y="170" as="targetPoint" />
          </mxGeometry>
        </mxCell>
      </root>
    </mxGraphModel>
  </diagram>
</mxfile>
